<svg xmlns="http://www.w3.org/2000/svg" width="136.124" height="78.4" viewBox="0 0 136.124 78.4">
  <path id="_363736842_132fcd08-f06f-4cb6-8a27-9db1b6edfe31" data-name="363736842_132fcd08-f06f-4cb6-8a27-9db1b6edfe31" d="M388.151,159.031a33.074,33.074,0,0,0-22.23-8.288H350.4a33.075,33.075,0,0,0-22.23,8.288,26.766,26.766,0,0,0-9.208,20.008v79.534a26.766,26.766,0,0,0,9.208,20.008,33.074,33.074,0,0,0,22.23,8.287h15.523a33.076,33.076,0,0,0,22.23-8.287,26.765,26.765,0,0,0,9.208-20.008V179.038A26.765,26.765,0,0,0,388.151,159.031Zm6.192,99.542a24.2,24.2,0,0,1-8.325,18.088,29.9,29.9,0,0,1-20.1,7.492H350.4c-.4,0-.8-.007-1.514-.035A29.543,29.543,0,0,1,330.3,276.66a24.2,24.2,0,0,1-8.325-18.088V179.038A24.2,24.2,0,0,1,330.3,160.95a29.9,29.9,0,0,1,20.1-7.492h15.523a29.9,29.9,0,0,1,20.1,7.492,24.2,24.2,0,0,1,8.325,18.088Z" transform="translate(286.867 -318.959) rotate(90)"/>
</svg>
