<svg xmlns="http://www.w3.org/2000/svg" xmlns:xlink="http://www.w3.org/1999/xlink" width="118" height="118" viewBox="0 0 118 118">
  <defs>
    <filter id="Rectangle_411831" x="0" y="0" width="118" height="118" filterUnits="userSpaceOnUse">
      <feOffset dy="3" input="SourceAlpha"/>
      <feGaussianBlur stdDeviation="3" result="blur"/>
      <feFlood flood-opacity="0.161"/>
      <feComposite operator="in" in2="blur"/>
      <feComposite in="SourceGraphic"/>
    </filter>
    <clipPath id="clip-path">
      <rect id="Rectangle_434354" data-name="Rectangle 434354" width="81" height="80" transform="translate(1101.823 2127.704)" fill="#fff" stroke="#707070" stroke-width="1"/>
    </clipPath>
  </defs>
  <g id="Group_1254643" data-name="Group 1254643" transform="translate(-1083.323 -2111.704)">
    <g id="Group_1254637" data-name="Group 1254637" transform="translate(756.542 -1740.296)">
      <g transform="matrix(1, 0, 0, 1, 326.78, 3852)" filter="url(#Rectangle_411831)">
        <g id="Rectangle_411831-2" data-name="Rectangle 411831" transform="translate(9 6)" fill="#e8de49" stroke="#fff" stroke-width="2">
          <path d="M5,0H68a32,32,0,0,1,32,32V95a5,5,0,0,1-5,5H32A32,32,0,0,1,0,68V5A5,5,0,0,1,5,0Z" stroke="none"/>
          <path d="M5,1H68A31,31,0,0,1,99,32V95a4,4,0,0,1-4,4H32A31,31,0,0,1,1,68V5A4,4,0,0,1,5,1Z" fill="none"/>
        </g>
      </g>
    </g>
    <g id="Mask_Group_1099656" data-name="Mask Group 1099656" clip-path="url(#clip-path)">
      <g id="performance_11501693" transform="translate(1101.033 2126.413)">
        <g id="Group_1269968" data-name="Group 1269968">
          <g id="Group_1269935" data-name="Group 1269935">
            <g id="Group_1269929" data-name="Group 1269929">
              <path id="Path_1300507" data-name="Path 1300507" d="M77.763,53.543V18.757a3.431,3.431,0,0,0-3.424-3.424h-1.37a3.43,3.43,0,0,0-3.424,3.424V53.543l4.109,7.116Z" fill="#e3a76f" fill-rule="evenodd"/>
            </g>
            <g id="Group_1269930" data-name="Group 1269930">
              <path id="Path_1300508" data-name="Path 1300508" d="M74.825,15.368a3.422,3.422,0,0,0-.486-.035h-1.37a3.43,3.43,0,0,0-3.424,3.424V53.543l4.109,7.116,1.171-2.027-2.938-5.089V18.757a3.432,3.432,0,0,1,2.938-3.389Z" fill="#c48958" fill-rule="evenodd"/>
            </g>
            <g id="Group_1269931" data-name="Group 1269931">
              <path id="Path_1300509" data-name="Path 1300509" d="M73.654,60.659l4.109-7.116H69.545Z" fill="#837683" fill-rule="evenodd"/>
            </g>
            <g id="Group_1269932" data-name="Group 1269932">
              <path id="Path_1300510" data-name="Path 1300510" d="M73.654,60.659l1.171-2.027-2.938-5.089H69.545Z" fill="#685e68" fill-rule="evenodd"/>
            </g>
            <g id="Group_1269933" data-name="Group 1269933">
              <path id="Path_1300511" data-name="Path 1300511" d="M77.763,21.631V18.757a3.43,3.43,0,0,0-3.424-3.424h-1.37a3.431,3.431,0,0,0-3.424,3.424v2.875h8.217Z" fill="#837683" fill-rule="evenodd"/>
            </g>
            <g id="Group_1269934" data-name="Group 1269934">
              <path id="Path_1300512" data-name="Path 1300512" d="M74.825,15.368a3.423,3.423,0,0,0-.486-.035h-1.37a3.431,3.431,0,0,0-3.424,3.424v2.875h2.341V18.757a3.432,3.432,0,0,1,2.938-3.389Z" fill="#685e68" fill-rule="evenodd"/>
            </g>
          </g>
          <g id="Group_1269967" data-name="Group 1269967">
            <g id="Group_1269947" data-name="Group 1269947">
              <g id="Group_1269938" data-name="Group 1269938">
                <g id="Group_1269936" data-name="Group 1269936">
                  <path id="Path_1300513" data-name="Path 1300513" d="M61.745,9.191a3.478,3.478,0,0,1,3.471,3.471V76.53A3.478,3.478,0,0,1,61.745,80H8.29A3.478,3.478,0,0,1,4.819,76.53V12.662A3.478,3.478,0,0,1,8.29,9.191H61.745Z" fill="#837683" fill-rule="evenodd"/>
                </g>
                <g id="Group_1269937" data-name="Group 1269937">
                  <path id="Path_1300514" data-name="Path 1300514" d="M11.852,80H8.29A3.478,3.478,0,0,1,4.819,76.53V12.662A3.478,3.478,0,0,1,8.29,9.191h3.562V80Z" fill="#685e68" fill-rule="evenodd"/>
                </g>
              </g>
              <g id="Group_1269943" data-name="Group 1269943">
                <g id="Group_1269941" data-name="Group 1269941">
                  <g id="Group_1269939" data-name="Group 1269939">
                    <path id="Path_1300515" data-name="Path 1300515" d="M10.454,14.02H59.581a.808.808,0,0,1,.806.806V67.795a.779.779,0,0,1-.222.556l-6.252,6.572a.78.78,0,0,1-.584.251H10.454a.808.808,0,0,1-.806-.806V14.826a.808.808,0,0,1,.806-.806Z" fill="#eceff1" fill-rule="evenodd"/>
                  </g>
                  <g id="Group_1269940" data-name="Group 1269940">
                    <path id="Path_1300516" data-name="Path 1300516" d="M10.454,14.02h1.4V75.173h-1.4a.808.808,0,0,1-.806-.806V14.826A.808.808,0,0,1,10.454,14.02Zm24.876,0h24.25a.8.8,0,0,1,.324.068H35.33Z" fill="#d1d1d6" fill-rule="evenodd"/>
                  </g>
                </g>
                <g id="Group_1269942" data-name="Group 1269942">
                  <path id="Path_1300517" data-name="Path 1300517" d="M53.535,75.173a1.063,1.063,0,0,0,.332-.234l6.181-6.489a1.22,1.22,0,0,0,.234-.332l-6.128.1a.573.573,0,0,0-.567.567Z" fill="#a79ba7" fill-rule="evenodd"/>
                </g>
              </g>
              <g id="Group_1269946" data-name="Group 1269946">
                <g id="Group_1269944" data-name="Group 1269944">
                  <path id="Path_1300518" data-name="Path 1300518" d="M22.46,7.093h6.218a.8.8,0,0,0,.762-.543,5.9,5.9,0,0,1,11.154,0,.8.8,0,0,0,.762.543h6.218a.808.808,0,0,1,.806.806v7.412a.808.808,0,0,1-.806.806H22.46a.808.808,0,0,1-.806-.806V7.9a.808.808,0,0,1,.806-.806Z" fill="#e3a76f" fill-rule="evenodd"/>
                </g>
                <g id="Group_1269945" data-name="Group 1269945">
                  <path id="Path_1300519" data-name="Path 1300519" d="M22.46,7.093h.806V13.7a.808.808,0,0,0,.806.806H48.381v.806a.808.808,0,0,1-.806.806H22.46a.808.808,0,0,1-.806-.806V7.9A.808.808,0,0,1,22.46,7.093Z" fill="#c48958" fill-rule="evenodd"/>
                </g>
              </g>
            </g>
            <g id="Group_1269966" data-name="Group 1269966">
              <g id="Group_1269950" data-name="Group 1269950">
                <g id="Group_1269948" data-name="Group 1269948">
                  <path id="Path_1300520" data-name="Path 1300520" d="M34.649,22.49l1.39,3.662a.284.284,0,0,0,.257.186l3.912.191a.29.29,0,0,1,.167.515L37.322,29.5a.284.284,0,0,0-.1.3l1.027,3.779a.29.29,0,0,1-.438.318l-3.277-2.145a.284.284,0,0,0-.317,0L30.942,33.9a.29.29,0,0,1-.438-.318L31.532,29.8a.284.284,0,0,0-.1-.3l-3.053-2.454a.29.29,0,0,1,.167-.515l3.912-.191a.284.284,0,0,0,.257-.186l1.39-3.662a.29.29,0,0,1,.542,0Z" fill="#ffe177" fill-rule="evenodd"/>
                </g>
                <g id="Group_1269949" data-name="Group 1269949">
                  <path id="Path_1300521" data-name="Path 1300521" d="M38.971,26.468l1.236.06a.29.29,0,0,1,.167.515L37.322,29.5a.284.284,0,0,0-.1.3l1.027,3.779a.29.29,0,0,1-.438.318l-.848-.555-.98-3.6a.284.284,0,0,1,.1-.3l3.053-2.454A.29.29,0,0,0,38.971,26.468ZM34.649,22.49l1.39,3.662a.284.284,0,0,0,.254.186l-1.235-.06a.284.284,0,0,1-.257-.186l-1.03-2.714.337-.887a.29.29,0,0,1,.542,0Zm-.112,9.261a.284.284,0,0,0-.317,0L30.943,33.9a.29.29,0,0,1-.438-.318l.088-.323,2.962-1.939a.285.285,0,0,1,.317,0Z" fill="#ffd064" fill-rule="evenodd"/>
                </g>
              </g>
              <g id="Group_1269953" data-name="Group 1269953">
                <g id="Group_1269951" data-name="Group 1269951">
                  <path id="Path_1300522" data-name="Path 1300522" d="M51.117,22.49l1.39,3.662a.284.284,0,0,0,.257.186l3.912.191a.29.29,0,0,1,.167.515L53.791,29.5a.284.284,0,0,0-.1.3l1.027,3.779a.29.29,0,0,1-.438.318l-3.277-2.145a.284.284,0,0,0-.317,0L47.411,33.9a.29.29,0,0,1-.438-.318L48,29.8a.284.284,0,0,0-.1-.3L44.85,27.043a.29.29,0,0,1,.167-.515l3.912-.191a.284.284,0,0,0,.257-.186l1.39-3.662a.29.29,0,0,1,.541,0Z" fill="#ffe177" fill-rule="evenodd"/>
                </g>
                <g id="Group_1269952" data-name="Group 1269952">
                  <path id="Path_1300523" data-name="Path 1300523" d="M55.439,26.468l1.236.06a.29.29,0,0,1,.167.515L53.791,29.5a.284.284,0,0,0-.1.3l1.027,3.779a.29.29,0,0,1-.438.318l-.848-.555-.98-3.6a.284.284,0,0,1,.1-.3l3.053-2.454a.29.29,0,0,0-.166-.515ZM51.117,22.49l1.39,3.662a.284.284,0,0,0,.254.186l-1.235-.06a.284.284,0,0,1-.257-.186l-1.03-2.714.337-.887a.29.29,0,0,1,.541,0Zm-.112,9.261a.284.284,0,0,0-.317,0L47.411,33.9a.29.29,0,0,1-.438-.318l.088-.323,2.962-1.939a.285.285,0,0,1,.317,0Z" fill="#ffd064" fill-rule="evenodd"/>
                </g>
              </g>
              <g id="Group_1269956" data-name="Group 1269956">
                <g id="Group_1269954" data-name="Group 1269954">
                  <path id="Path_1300524" data-name="Path 1300524" d="M34.649,39.528l1.39,3.662a.284.284,0,0,0,.257.186l3.912.191a.29.29,0,0,1,.167.515l-3.053,2.454a.284.284,0,0,0-.1.3l1.027,3.779a.29.29,0,0,1-.438.318l-3.277-2.145a.284.284,0,0,0-.317,0l-3.277,2.145a.29.29,0,0,1-.438-.318l1.027-3.779a.285.285,0,0,0-.1-.3l-3.052-2.453a.29.29,0,0,1,.167-.515l3.912-.191a.284.284,0,0,0,.257-.186l1.39-3.662a.29.29,0,0,1,.541,0Z" fill="#ffe177" fill-rule="evenodd"/>
                </g>
                <g id="Group_1269955" data-name="Group 1269955">
                  <path id="Path_1300525" data-name="Path 1300525" d="M38.971,43.506l1.236.06a.29.29,0,0,1,.167.515l-3.053,2.454a.284.284,0,0,0-.1.3l1.027,3.779a.29.29,0,0,1-.438.318l-.848-.555-.98-3.6a.284.284,0,0,1,.1-.3l3.053-2.454a.29.29,0,0,0-.166-.515Zm-4.322-3.978,1.39,3.662a.284.284,0,0,0,.254.186l-1.235-.06a.284.284,0,0,1-.257-.186l-1.03-2.714.337-.887a.29.29,0,0,1,.542,0Zm-.112,9.261a.284.284,0,0,0-.317,0l-3.277,2.145a.29.29,0,0,1-.438-.318l.088-.323,2.962-1.939a.285.285,0,0,1,.317,0Z" fill="#ffd064" fill-rule="evenodd"/>
                </g>
              </g>
              <g id="Group_1269959" data-name="Group 1269959">
                <g id="Group_1269957" data-name="Group 1269957">
                  <ellipse id="Ellipse_14593" data-name="Ellipse 14593" cx="5.504" cy="5.504" rx="5.504" ry="5.504" transform="translate(13.034 23.88) rotate(-0.63)" fill="#6cf5c2"/>
                </g>
                <g id="Group_1269958" data-name="Group 1269958">
                  <path id="Path_1300526" data-name="Path 1300526" d="M18.587,23.825a5.5,5.5,0,1,1-.806,10.948,5.5,5.5,0,0,0,0-10.889A5.585,5.585,0,0,1,18.587,23.825Z" fill="#00e499" fill-rule="evenodd"/>
                </g>
              </g>
              <g id="Group_1269962" data-name="Group 1269962">
                <g id="Group_1269960" data-name="Group 1269960">
                  <ellipse id="Ellipse_14594" data-name="Ellipse 14594" cx="5.504" cy="5.504" rx="5.504" ry="5.504" transform="translate(13.041 40.919) rotate(-0.63)" fill="#8ac9fe"/>
                </g>
                <g id="Group_1269961" data-name="Group 1269961">
                  <path id="Path_1300527" data-name="Path 1300527" d="M18.587,40.863a5.5,5.5,0,1,1-.806,10.948,5.5,5.5,0,0,0,0-10.889A5.562,5.562,0,0,1,18.587,40.863Z" fill="#60b7ff" fill-rule="evenodd"/>
                </g>
              </g>
              <g id="Group_1269965" data-name="Group 1269965">
                <g id="Group_1269963" data-name="Group 1269963">
                  <ellipse id="Ellipse_14595" data-name="Ellipse 14595" cx="5.504" cy="5.504" rx="5.504" ry="5.504" transform="translate(13.047 57.958) rotate(-0.63)" fill="#ffe177"/>
                </g>
                <g id="Group_1269964" data-name="Group 1269964">
                  <path id="Path_1300528" data-name="Path 1300528" d="M18.587,57.9a5.5,5.5,0,1,1-.806,10.948,5.5,5.5,0,0,0,0-10.889A5.54,5.54,0,0,1,18.587,57.9Z" fill="#ffd064" fill-rule="evenodd"/>
                </g>
              </g>
            </g>
          </g>
        </g>
        <g id="Group_1269969" data-name="Group 1269969">
          <path id="Path_1300529" data-name="Path 1300529" d="M18.586,67.617A4.213,4.213,0,1,1,22.8,63.4,4.216,4.216,0,0,1,18.586,67.617Zm0-11.007A6.794,6.794,0,1,0,25.38,63.4a6.8,6.8,0,0,0-6.793-6.794Zm3.043-12.454a1.29,1.29,0,0,1-.089,1.823l-2.958,2.686a1.289,1.289,0,0,1-1.78-.043L15.584,47.4a1.29,1.29,0,0,1,1.824-1.824l.35.349,2.049-1.86a1.29,1.29,0,0,1,1.822.088ZM18.586,50.58a4.213,4.213,0,1,0-4.213-4.213A4.218,4.218,0,0,0,18.586,50.58Zm0-11.007a6.794,6.794,0,1,0,6.793,6.794,6.8,6.8,0,0,0-6.793-6.794Zm13.935,5.092a1.581,1.581,0,0,0,1.4-1.017l.455-1.2.455,1.2a1.579,1.579,0,0,0,1.4,1.017l1.279.062-1,.8a1.584,1.584,0,0,0-.538,1.647l.337,1.237-1.071-.7a1.577,1.577,0,0,0-1.73,0l-1.073.7.335-1.235a1.577,1.577,0,0,0-.534-1.647l-1-.8Zm-4.95.423,2.543,2.043-.856,3.148a1.579,1.579,0,0,0,2.389,1.736l2.729-1.786,2.729,1.786A1.58,1.58,0,0,0,39.5,50.278l-.856-3.148,2.542-2.043a1.58,1.58,0,0,0-.912-2.81l-3.257-.159-1.158-3.05a1.581,1.581,0,0,0-2.955,0l-1.157,3.05-3.258.159a1.58,1.58,0,0,0-.914,2.81Zm-9.813-16.2,2.049-1.859a1.29,1.29,0,1,1,1.733,1.911l-2.958,2.686a1.291,1.291,0,0,1-1.78-.043l-1.218-1.218a1.29,1.29,0,0,1,1.824-1.825Zm5.041.439a4.213,4.213,0,1,0-4.213,4.213A4.218,4.218,0,0,0,22.8,29.329Zm-11.007,0a6.794,6.794,0,1,0,6.794-6.794,6.8,6.8,0,0,0-6.794,6.794Zm37.2-1.7a1.58,1.58,0,0,0,1.4-1.017l.453-1.2.455,1.2a1.579,1.579,0,0,0,1.4,1.017l1.278.062-1,.8a1.58,1.58,0,0,0-.534,1.645l.335,1.236-1.071-.7a1.58,1.58,0,0,0-1.73,0l-1.073.7.337-1.236a1.58,1.58,0,0,0-.536-1.646l-1-.8Zm-4.951.423,2.542,2.043-.855,3.148a1.579,1.579,0,0,0,2.391,1.736l2.727-1.786,2.729,1.786a1.58,1.58,0,0,0,2.391-1.736l-.857-3.148,2.542-2.043a1.58,1.58,0,0,0-.911-2.809l-3.258-.159-1.159-3.049a1.579,1.579,0,0,0-2.952,0l-1.159,3.049-3.258.159a1.579,1.579,0,0,0-.913,2.809Zm-11.518-.423a1.58,1.58,0,0,0,1.4-1.017l.455-1.2.455,1.2a1.579,1.579,0,0,0,1.4,1.017l1.279.062-1,.8a1.585,1.585,0,0,0-.536,1.646l.337,1.236-1.071-.7a1.578,1.578,0,0,0-1.73,0l-1.073.7.335-1.234a1.578,1.578,0,0,0-.534-1.647l-1-.8Zm-4.95.423,2.543,2.043-.856,3.147a1.578,1.578,0,0,0,2.389,1.737l2.729-1.786,2.729,1.786A1.58,1.58,0,0,0,39.5,33.24l-.856-3.148,2.542-2.043a1.579,1.579,0,0,0-.912-2.809l-3.257-.159-1.158-3.049a1.581,1.581,0,0,0-2.955,0l-1.157,3.049-3.258.159a1.58,1.58,0,0,0-.914,2.809ZM36.577,7.418a1.561,1.561,0,1,1-1.562-1.561A1.565,1.565,0,0,1,36.577,7.418ZM63.923,76.53V12.663a2.183,2.183,0,0,0-2.18-2.181H49.67V12.73H60.386a1.292,1.292,0,0,1,1.291,1.291v54.1a1.284,1.284,0,0,1-.357.889l-6.711,7.057a1.294,1.294,0,0,1-.935.4H9.645a1.293,1.293,0,0,1-1.291-1.291V14.02A1.291,1.291,0,0,1,9.645,12.73H20.362V10.482H8.289a2.183,2.183,0,0,0-2.18,2.181V76.53a2.181,2.181,0,0,0,2.18,2.18H61.743a2.181,2.181,0,0,0,2.181-2.18Zm-6.592-7.074L54.85,72.064l.022-2.568ZM48.38,17.409H21.652a1.29,1.29,0,0,1-1.29-1.291V15.31H10.936V73.884H52.254l.042-5.11a1.855,1.855,0,0,1,1.837-1.847l4.963-.08V15.31H49.67v.808a1.291,1.291,0,0,1-1.291,1.291ZM22.943,8.383v6.445H47.09V8.383H40.752A1.29,1.29,0,0,1,39.5,7.4a4.611,4.611,0,0,0-8.963,0,1.29,1.29,0,0,1-1.255.988Zm38.8-.482H49.67V7.094A1.291,1.291,0,0,0,48.38,5.8H41.693a7.2,7.2,0,0,0-13.353,0H21.652a1.29,1.29,0,0,0-1.29,1.291V7.9H8.289a4.766,4.766,0,0,0-4.762,4.762V76.53a4.766,4.766,0,0,0,4.762,4.761H61.743A4.766,4.766,0,0,0,66.5,76.53V12.663A4.766,4.766,0,0,0,61.743,7.9ZM73.649,58.08l-1.868-3.245h3.743Zm-2.814-5.826V24.044h5.638v28.21Zm2.131-35.63H74.34a2.135,2.135,0,0,1,2.133,2.133v2.706H70.835V18.757A2.133,2.133,0,0,1,72.966,16.624Zm1.374-2.581H72.966a4.719,4.719,0,0,0-4.712,4.715V53.544a1.3,1.3,0,0,0,.172.645l4.107,7.116a1.294,1.294,0,0,0,2.24,0L78.88,54.19a1.29,1.29,0,0,0,.175-.645V18.757a4.722,4.722,0,0,0-4.714-4.714Z" fill="#242222" fill-rule="evenodd"/>
        </g>
      </g>
    </g>
  </g>
</svg>
