<svg xmlns="http://www.w3.org/2000/svg" xmlns:xlink="http://www.w3.org/1999/xlink" width="118" height="118" viewBox="0 0 118 118">
  <defs>
    <filter id="Rectangle_411831" x="0" y="0" width="118" height="118" filterUnits="userSpaceOnUse">
      <feOffset dy="3" input="SourceAlpha"/>
      <feGaussianBlur stdDeviation="3" result="blur"/>
      <feFlood flood-opacity="0.161"/>
      <feComposite operator="in" in2="blur"/>
      <feComposite in="SourceGraphic"/>
    </filter>
    <clipPath id="clip-path">
      <rect id="Rectangle_434354" data-name="Rectangle 434354" width="81" height="80" transform="translate(1101.824 2127.704)" fill="#fff" stroke="#707070" stroke-width="1"/>
    </clipPath>
  </defs>
  <g id="Group_1265208" data-name="Group 1265208" transform="translate(-1083.323 -2111.704)">
    <g id="Group_1254637" data-name="Group 1254637" transform="translate(756.542 -1740.296)">
      <g transform="matrix(1, 0, 0, 1, 326.78, 3852)" filter="url(#Rectangle_411831)">
        <g id="Rectangle_411831-2" data-name="Rectangle 411831" transform="translate(9 6)" fill="#e8de49" stroke="#fff" stroke-width="2">
          <path d="M5,0H68a32,32,0,0,1,32,32V95a5,5,0,0,1-5,5H32A32,32,0,0,1,0,68V5A5,5,0,0,1,5,0Z" stroke="none"/>
          <path d="M5,1H68A31,31,0,0,1,99,32V95a4,4,0,0,1-4,4H32A31,31,0,0,1,1,68V5A4,4,0,0,1,5,1Z" fill="none"/>
        </g>
      </g>
    </g>
    <g id="Mask_Group_1099688" data-name="Mask Group 1099688" clip-path="url(#clip-path)">
      <g id="suggest_5772809" transform="translate(1102.324 2127.704)">
        <g id="Group_1270097" data-name="Group 1270097">
          <g id="Group_1270092" data-name="Group 1270092">
            <path id="Path_1301232" data-name="Path 1301232" d="M73.454,43.291l.88,3.339a2.223,2.223,0,0,0,2.616,1.609L77,48.227A2.3,2.3,0,0,0,78.778,45.5c-.2-.942-.452-2.133-.736-3.473l-2.764-.246Z" fill="#dd9162"/>
            <path id="Path_1301233" data-name="Path 1301233" d="M57.32,76.168l-.15-5.454a124.965,124.965,0,0,1-1.781-21.023l-.781-7.179,7.8-2.133,7.8,2.133v7.179a124.965,124.965,0,0,1-1.781,21.023l-.884,5.145Z" fill="#f5f8f9"/>
            <path id="Path_1301234" data-name="Path 1301234" d="M58.9,22.658l1.175-6.094,4.871-.5.972,6.6a2.469,2.469,0,0,1-2.431,3.3l-2.388-.1a2.428,2.428,0,0,1-2.2-3.195Z" fill="#d3865b"/>
            <path id="Path_1301235" data-name="Path 1301235" d="M58.635,17.832a3.367,3.367,0,0,0,2.8,1.019,6.837,6.837,0,0,0,5.423-3.837l.64-1.331A5.448,5.448,0,1,0,57.307,9.97L56.943,11.4A6.854,6.854,0,0,0,58.635,17.832Z" fill="#dd9162"/>
            <path id="Path_1301236" data-name="Path 1301236" d="M40,35.927a2.484,2.484,0,0,0,.7,1.72,2.378,2.378,0,0,0,1.687.739h2.981l3.2-2.642-3.2-2.2H42.442A2.391,2.391,0,0,0,40,35.927Z" fill="#dd9162"/>
            <path id="Path_1301237" data-name="Path 1301237" d="M78.042,42.031c-1.016-4.8-2.437-11.527-3.311-15.659a4.68,4.68,0,0,0-4.578-3.714H65.913a3.937,3.937,0,0,1-7.019,0H54.656A4.679,4.679,0,0,0,50.174,26L47.933,33.43a.156.156,0,0,1-.15.111h-2.42v4.845h4.023a3.076,3.076,0,0,0,2.908-1.877l2.01-4.834a.156.156,0,0,1,.3.06l.865,5.677-.865,5.1H70.2V32.159a.156.156,0,0,1,.307-.04l2.944,11.171,2.03-.557h0Z" fill="#d9b1ee"/>
            <path id="Path_1301238" data-name="Path 1301238" d="M60.428,76.075l-3.109.094-.931-5.455a125.033,125.033,0,0,1-1.781-21.022v-7.18l1.423-1.823,1.7,1.823v7.18a125.033,125.033,0,0,0,1.781,21.022Z" fill="#e8edf2"/>
            <path id="Path_1301239" data-name="Path 1301239" d="M57.731,33.771v8.742H54.606V31.737l1.1,0A2.031,2.031,0,0,1,57.731,33.771Z" fill="#cb97e7"/>
            <g id="Group_1270091" data-name="Group 1270091">
              <g id="Group_1270089" data-name="Group 1270089">
                <path id="Path_1301240" data-name="Path 1301240" d="M66.877,74.063l-1.2.156a3.125,3.125,0,0,0-3.125,3.125l.01,1.007a.312.312,0,0,0,.313.313l2.182.165H69.67a.312.312,0,0,0,.313-.312V77.11a3.126,3.126,0,0,0-2.461-3.054S67.1,74.063,66.877,74.063Z" fill="#827e7c"/>
                <path id="Path_1301241" data-name="Path 1301241" d="M67.521,74.057A3.122,3.122,0,0,0,65.06,77.11v1.719H62.4l-.549-.9.549-.82a3.125,3.125,0,0,1,3.125-3.125h1.328A3.1,3.1,0,0,1,67.521,74.057Z" fill="#726d6a"/>
              </g>
              <g id="Group_1270090" data-name="Group 1270090">
                <path id="Path_1301242" data-name="Path 1301242" d="M59.3,74.063l-1.2.156a3.125,3.125,0,0,0-3.125,3.125l.01,1.007a.312.312,0,0,0,.313.313l2.182.165H62.4V77.11a3.126,3.126,0,0,0-2.461-3.054S59.526,74.063,59.3,74.063Z" fill="#827e7c"/>
                <path id="Path_1301243" data-name="Path 1301243" d="M59.943,74.057a3.122,3.122,0,0,0-2.461,3.053v1.719H55.139a.313.313,0,0,1-.312-.312V77.11a3.124,3.124,0,0,1,3.125-3.125h1.328A3.1,3.1,0,0,1,59.943,74.057Z" fill="#726d6a"/>
              </g>
            </g>
          </g>
          <path id="Path_1301244" data-name="Path 1301244" d="M34.029,16.564h2.186a7.957,7.957,0,0,1,3.74,1.086,7.8,7.8,0,0,0,3.609.952l2.859-.026a2.364,2.364,0,0,0,2.365-2.364c0-.1.145.059.145-.04V9.719a2.364,2.364,0,0,0-2.365-2.364H43.742A.946.946,0,0,1,42.8,6.279l.248-1.792a2.915,2.915,0,0,0-2.888-3.315.789.789,0,0,0-.765.6l-.849,3.42A4.023,4.023,0,0,1,37.2,7.333a2.854,2.854,0,0,1-2.48,1.3h-.664Z" fill="#ffd18d"/>
          <path id="Path_1301245" data-name="Path 1301245" d="M43.432,16.172a7.566,7.566,0,0,1-3.609-.952,7.293,7.293,0,0,0-2.118-.8.628.628,0,0,1-.506-.613V7.333a4.025,4.025,0,0,1-2.48.919h-.666l-.025,8.672a31.186,31.186,0,0,1,3.158.066,7.3,7.3,0,0,1,2.635.887,7.57,7.57,0,0,0,3.609.952h3.136a2.366,2.366,0,0,0,2.366-2.366v-.291h-5.5Z" fill="#fbbd80"/>
          <path id="Path_1301246" data-name="Path 1301246" d="M31.432,17.94l2.211.007a.772.772,0,0,0,.772-.772L34.543,15V7.861a.772.772,0,0,0-.772-.772H31.215a.772.772,0,0,0-.772.772V15l.217,2.166A.772.772,0,0,0,31.432,17.94Z" fill="#a6e7f0"/>
          <path id="Path_1301247" data-name="Path 1301247" d="M34.543,15v2.353a.772.772,0,0,1-.772.772H31.215a.772.772,0,0,1-.772-.772V15Z" fill="#6bd9e7"/>
          <g id="Group_1270096" data-name="Group 1270096">
            <path id="Path_1301248" data-name="Path 1301248" d="M6.545,43.291l-.88,3.339A2.223,2.223,0,0,1,3.05,48.239l-.055-.012A2.3,2.3,0,0,1,1.221,45.5c.2-.942.452-2.133.736-3.473l2.764-.246Z" fill="#f4aa73"/>
            <path id="Path_1301249" data-name="Path 1301249" d="M12.51,76.168l-.15-5.454a124.965,124.965,0,0,1-1.781-21.023L9.8,42.513l7.8-2.133,7.8,2.133v7.179a124.965,124.965,0,0,1-1.781,21.023l-.884,5.145Z" fill="#827e7c"/>
            <path id="Path_1301250" data-name="Path 1301250" d="M21.1,22.658l-1.175-6.094-4.871-.5-.972,6.6a2.469,2.469,0,0,0,2.431,3.3l2.388-.1a2.428,2.428,0,0,0,2.2-3.195Z" fill="#ea9f6c"/>
            <path id="Path_1301251" data-name="Path 1301251" d="M21.364,17.832a3.367,3.367,0,0,1-2.8,1.019,6.837,6.837,0,0,1-5.423-3.837l-.64-1.331A5.448,5.448,0,1,1,22.692,9.97l.364,1.431A6.854,6.854,0,0,1,21.364,17.832Z" fill="#f4aa73"/>
            <path id="Path_1301252" data-name="Path 1301252" d="M40,35.927a2.484,2.484,0,0,1-.7,1.72,2.378,2.378,0,0,1-1.687.739H34.635l-3.2-2.642,3.2-2.2h2.922A2.391,2.391,0,0,1,40,35.927Z" fill="#f4aa73"/>
            <path id="Path_1301253" data-name="Path 1301253" d="M34.635,33.541v4.845H30.612A3.076,3.076,0,0,1,27.7,36.509l-2.01-4.834a.156.156,0,0,0-.3.06V42.513H9.8l1.131-5.1L9.8,32.159a.156.156,0,0,0-.307-.04L6.545,43.291l-2.03-.557-1.759-.848c1.016-4.8,2.313-10.867,3.187-15C6.4,24.72,7.7,22.843,9.912,22.843l2.507-.185h1.666a3.937,3.937,0,0,0,7.019,0h4.239A4.679,4.679,0,0,1,29.825,26l2.241,7.434a.156.156,0,0,0,.15.111Z" fill="#bbec6c"/>
            <path id="Path_1301254" data-name="Path 1301254" d="M12.659,22.658a4.68,4.68,0,0,0-4.578,3.714L4.515,42.733l-2.558-.7c1.016-4.8,2.438-11.527,3.311-15.659a4.68,4.68,0,0,1,4.578-3.714Z" fill="#afe05a"/>
            <path id="Path_1301255" data-name="Path 1301255" d="M15.618,76.075l-3.109.094-.931-5.455A125.033,125.033,0,0,1,9.8,49.692v-7.18l1.423-1.823,1.7,1.823v7.18A125.033,125.033,0,0,0,14.7,70.714Z" fill="#726d6a"/>
            <path id="Path_1301256" data-name="Path 1301256" d="M12.921,34.193v8.32H9.8V32.159l1.1,0A2.031,2.031,0,0,1,12.921,34.193Z" fill="#afe05a"/>
            <g id="Group_1270095" data-name="Group 1270095">
              <g id="Group_1270093" data-name="Group 1270093">
                <path id="Path_1301257" data-name="Path 1301257" d="M22.067,74.063l-1.2.156a3.125,3.125,0,0,0-3.125,3.125l.01,1.007a.312.312,0,0,0,.313.313l2.182.165H24.86a.312.312,0,0,0,.313-.312V77.11a3.126,3.126,0,0,0-2.461-3.054s-.417.007-.645.007Z" fill="#f5f8f9"/>
                <path id="Path_1301258" data-name="Path 1301258" d="M22.712,74.057a3.122,3.122,0,0,0-2.461,3.053v1.719H17.595l-.549-.9.549-.82a3.125,3.125,0,0,1,3.125-3.125h1.328A3.1,3.1,0,0,1,22.712,74.057Z" fill="#e8edf2"/>
              </g>
              <g id="Group_1270094" data-name="Group 1270094">
                <path id="Path_1301259" data-name="Path 1301259" d="M14.489,74.063l-1.2.156a3.125,3.125,0,0,0-3.125,3.125l.01,1.007a.312.312,0,0,0,.313.313l2.183.165h4.922V77.11a3.126,3.126,0,0,0-2.461-3.054s-.417.007-.645.007Z" fill="#f5f8f9"/>
                <path id="Path_1301260" data-name="Path 1301260" d="M15.134,74.057a3.122,3.122,0,0,0-2.461,3.053v1.719H10.329a.313.313,0,0,1-.312-.312V77.11a3.124,3.124,0,0,1,3.125-3.125H14.47A3.1,3.1,0,0,1,15.134,74.057Z" fill="#e8edf2"/>
              </g>
            </g>
          </g>
        </g>
        <g id="Group_1270098" data-name="Group 1270098">
          <path id="Path_1301261" data-name="Path 1301261" d="M17.595,48.368a1.172,1.172,0,0,0-1.172,1.172V62.178a1.172,1.172,0,0,0,2.344,0V49.539A1.172,1.172,0,0,0,17.595,48.368Z"/>
          <path id="Path_1301262" data-name="Path 1301262" d="M79.924,45.267c-.508-2.418-3.473-16.424-4.045-19.137a5.879,5.879,0,0,0-5.724-4.644H66.927l-.557-3.78a8.055,8.055,0,0,0,1.541-2.183l.64-1.331a6.62,6.62,0,1,0-12.377-4.51l-.364,1.431a7.979,7.979,0,0,0,1.981,7.53,4.49,4.49,0,0,0,.588.514l-.449,2.33H54.657a5.815,5.815,0,0,0-5.6,4.172l-2.023,6.712H42.459A3.591,3.591,0,0,0,40,33.293a3.544,3.544,0,0,0-2.447-.923H32.97l-2.022-6.711a5.816,5.816,0,0,0-5.6-4.173H22.071l-.449-2.33a4.481,4.481,0,0,0,.588-.514,7.979,7.979,0,0,0,1.981-7.53l-.364-1.431a6.62,6.62,0,1,0-12.378,4.51l.64,1.331a8.055,8.055,0,0,0,1.541,2.183l-.557,3.78H9.846A5.88,5.88,0,0,0,4.122,26.13l-.911,4.309a1.172,1.172,0,1,0,2.293.485l.911-4.309A3.525,3.525,0,0,1,9.846,23.83h3.582a5.11,5.11,0,0,0,8.334,0h3.582a3.487,3.487,0,0,1,3.359,2.5l2.274,7.546a1.172,1.172,0,0,0,1.122.834h1.364v2.5H30.581a1.916,1.916,0,0,1-1.8-1.154L26.475,30.5a1.172,1.172,0,0,0-2.254.45V41.341H10.969V30.954a1.172,1.172,0,0,0-2.3-.3L5.714,41.848l-2.381-.654,1.044-4.935a1.172,1.172,0,0,0-2.293-.485C1.3,39.456.545,43.044.075,45.262A3.541,3.541,0,0,0,2.8,49.385,3.388,3.388,0,0,0,6.8,46.928L8.625,40v9.694a126.509,126.509,0,0,0,1.8,21.22l.438,2.568a4.293,4.293,0,0,0-2,3.628v1.721A1.172,1.172,0,0,0,10.031,80H25.159a1.172,1.172,0,0,0,1.172-1.172V77.107a4.293,4.293,0,0,0-2-3.628l.438-2.568a126.492,126.492,0,0,0,1.8-21.22V36.822a4.354,4.354,0,0,0,4.006,2.735h7.061A3.547,3.547,0,0,0,40,38.6a3.568,3.568,0,0,0,2.383.954h7.036a4.349,4.349,0,0,0,4.016-2.735V50.073a1.172,1.172,0,0,0,1.172,1.169h0a1.172,1.172,0,0,0,1.169-1.175V43.685H69.033v6.007a124.144,124.144,0,0,1-1.764,20.825l-.392,2.3c-.023,0-1.188,0-1.348,0a4.266,4.266,0,0,0-1.95.47V49.539a1.172,1.172,0,0,0-2.344,0V73.284a4.265,4.265,0,0,0-1.95-.47c-.08,0-1.243,0-1.348,0l-.392-2.3a124.22,124.22,0,0,1-1.629-15.038,1.172,1.172,0,0,0-2.341.11,126.57,126.57,0,0,0,1.66,15.322l.438,2.568a4.293,4.293,0,0,0-2,3.628v1.721A1.172,1.172,0,0,0,54.842,80H69.97a1.172,1.172,0,0,0,1.172-1.172V77.107a4.293,4.293,0,0,0-2-3.628l.438-2.568a126.508,126.508,0,0,0,1.8-21.22v-9.7l1.833,6.945a3.385,3.385,0,0,0,3.99,2.452l.054-.012a3.475,3.475,0,0,0,2.671-4.106ZM13.455,9.7a4.23,4.23,0,0,1,2.5-2.408,4.22,4.22,0,0,1,3.455.236,4.233,4.233,0,0,1,2.149,2.731l.364,1.431a5.649,5.649,0,0,1-1.4,5.331,2.209,2.209,0,0,1-1.823.665,5.632,5.632,0,0,1-4.493-3.18l-.64-1.331A4.242,4.242,0,0,1,13.455,9.7Zm4.139,13.939a2.71,2.71,0,0,1-2.29-1.216l.468-3.18a8.029,8.029,0,0,0,2.669.774,4.436,4.436,0,0,0,.481.026,4.5,4.5,0,0,0,.477-.026l.468,2.43a2.711,2.711,0,0,1-2.275,1.193ZM3.3,47.093a1.213,1.213,0,0,1-.927-1.346l.478-2.257,2.27.624-.584,2.217A1.05,1.05,0,0,1,3.3,47.093ZM11.2,77.107a1.952,1.952,0,0,1,1.95-1.95h1.321a1.952,1.952,0,0,1,1.95,1.95v.549H11.2Zm12.784.549h-5.22v-.549a1.952,1.952,0,0,1,1.95-1.95h1.321a1.952,1.952,0,0,1,1.95,1.95v.549Zm-3.27-4.842a4.266,4.266,0,0,0-1.95.47V67.663a1.172,1.172,0,0,0-2.344,0v5.621a4.266,4.266,0,0,0-1.95-.47c-.079,0-1.244,0-1.348,0l-.392-2.3a124.144,124.144,0,0,1-1.764-20.825V43.685H24.221v6.007a124.127,124.127,0,0,1-1.764,20.825l-.392,2.3H20.716Zm35.3,4.293a1.952,1.952,0,0,1,1.95-1.95h1.321a1.952,1.952,0,0,1,1.95,1.95v.549h-5.22v-.549Zm12.784.549h-5.22v-.549a1.952,1.952,0,0,1,1.95-1.95h1.321a1.952,1.952,0,0,1,1.95,1.95v.549ZM58.081,11.691l.364-1.431a4.289,4.289,0,0,1,4.135-3.23,4.282,4.282,0,0,1,1.468.262,4.286,4.286,0,0,1,2.39,5.884l-.64,1.331a5.631,5.631,0,0,1-4.493,3.18,2.211,2.211,0,0,1-1.823-.665A5.65,5.65,0,0,1,58.081,11.691Zm3,8.352a4.438,4.438,0,0,0,.481-.026,8.033,8.033,0,0,0,2.669-.774l.457,3.1a3.029,3.029,0,0,1-4.538.021l.453-2.35a4.5,4.5,0,0,0,.477.026ZM37.617,37.213h-1.81v-2.5h1.764a1.234,1.234,0,0,1,.9.358,1.192,1.192,0,0,1,.355.856A1.284,1.284,0,0,1,37.617,37.213Zm3.556-1.287a1.193,1.193,0,0,1,.355-.856,1.258,1.258,0,0,1,.917-.358h1.643v2.5H42.4A1.286,1.286,0,0,1,41.173,35.926Zm30.165-5.272a1.172,1.172,0,0,0-1.132-.873,1.189,1.189,0,0,0-.152.01,1.172,1.172,0,0,0-1.021,1.162V41.341H55.781V30.954a1.172,1.172,0,0,0-2.254-.45L51.215,36.06a1.926,1.926,0,0,1-1.826,1.154H46.432v-2.5H47.9a1.172,1.172,0,0,0,1.122-.834L51.3,26.332a3.487,3.487,0,0,1,3.358-2.5h3.657a5.372,5.372,0,0,0,8.185,0h3.656a3.525,3.525,0,0,1,3.43,2.785L76.669,41.2l-2.376.653ZM76.76,47.082l-.054.012a1.046,1.046,0,0,1-1.231-.758l-.584-2.214,2.264-.622.476,2.253A1.127,1.127,0,0,1,76.76,47.082Z"/>
          <path id="Path_1301263" data-name="Path 1301263" d="M31.215,19.3h2.556a1.946,1.946,0,0,0,1.8-1.2h.648a6.156,6.156,0,0,1,3.031.8A8.5,8.5,0,0,0,43.432,20h3.135A3.541,3.541,0,0,0,50.1,16.464v-.682a1.172,1.172,0,0,0-2.344,0v.683a1.194,1.194,0,0,1-1.193,1.192H43.432a6.156,6.156,0,0,1-3.031-.8,8.5,8.5,0,0,0-4.187-1.1h-.5V9.312a5.194,5.194,0,0,0,3.974-3.839l.77-3.105a1.745,1.745,0,0,1,1.433,1.959l-.248,1.792a2.118,2.118,0,0,0,2.1,2.408h2.826a1.192,1.192,0,0,1,1.193,1.192v.6a1.172,1.172,0,0,0,2.344,0v-.6a3.536,3.536,0,0,0-3.537-3.536H44l.212-1.535A4.087,4.087,0,0,0,40.165,0a1.957,1.957,0,0,0-1.9,1.488l-.849,3.42a2.853,2.853,0,0,1-1.927,2.041,1.945,1.945,0,0,0-1.716-1.032H31.215a1.946,1.946,0,0,0-1.944,1.944v9.494A1.946,1.946,0,0,0,31.215,19.3Zm.4-11.038h1.756v8.424a1.176,1.176,0,0,0-.025.24c0,.01,0,.021,0,.031H31.615Z"/>
        </g>
      </g>
    </g>
  </g>
</svg>
