<svg xmlns="http://www.w3.org/2000/svg" xmlns:xlink="http://www.w3.org/1999/xlink" width="118" height="118" viewBox="0 0 118 118">
  <defs>
    <filter id="Rectangle_411831" x="0" y="0" width="118" height="118" filterUnits="userSpaceOnUse">
      <feOffset dy="3" input="SourceAlpha"/>
      <feGaussianBlur stdDeviation="3" result="blur"/>
      <feFlood flood-opacity="0.161"/>
      <feComposite operator="in" in2="blur"/>
      <feComposite in="SourceGraphic"/>
    </filter>
    <clipPath id="clip-path">
      <rect id="Rectangle_434353" data-name="Rectangle 434353" width="81" height="80" transform="translate(784.823 2127.704)" fill="#fff" stroke="#707070" stroke-width="1"/>
    </clipPath>
  </defs>
  <g id="Group_1259387" data-name="Group 1259387" transform="translate(-766.323 -2111.704)">
    <g id="Group_1254636" data-name="Group 1254636" transform="translate(439.542 -1740.296)">
      <g transform="matrix(1, 0, 0, 1, 326.78, 3852)" filter="url(#Rectangle_411831)">
        <g id="Rectangle_411831-2" data-name="Rectangle 411831" transform="translate(9 6)" fill="#e8de49" stroke="#fff" stroke-width="2">
          <path d="M5,0H68a32,32,0,0,1,32,32V95a5,5,0,0,1-5,5H32A32,32,0,0,1,0,68V5A5,5,0,0,1,5,0Z" stroke="none"/>
          <path d="M5,1H68A31,31,0,0,1,99,32V95a4,4,0,0,1-4,4H32A31,31,0,0,1,1,68V5A4,4,0,0,1,5,1Z" fill="none"/>
        </g>
      </g>
    </g>
    <g id="Mask_Group_1099678" data-name="Mask Group 1099678" clip-path="url(#clip-path)">
      <g id="approval_1283177" transform="translate(785.323 2127.704)">
        <path id="Path_1301051" data-name="Path 1301051" d="M60.645,11.613V1.29H1.29v67.1H60.645Zm0,0" fill="#e6e9ed"/>
        <path id="Path_1301052" data-name="Path 1301052" d="M52.9,52.9V68.387h7.742V9.032a20.631,20.631,0,0,0-5.161,40.61V52.9Zm0,0" fill="#ccd1d9"/>
        <path id="Path_1301053" data-name="Path 1301053" d="M58.065,45.161h5.161v12.9H58.065Zm0,0" fill="#ecc19c"/>
        <path id="Path_1301054" data-name="Path 1301054" d="M78.71,29.677A18.065,18.065,0,1,1,60.645,11.613,18.065,18.065,0,0,1,78.71,29.677Zm0,0" fill="#e6e9ed"/>
        <path id="Path_1301055" data-name="Path 1301055" d="M73.548,29.677a12.9,12.9,0,1,1-12.9-12.9A12.9,12.9,0,0,1,73.548,29.677Zm0,0" fill="#4fc1e9"/>
        <path id="Path_1301056" data-name="Path 1301056" d="M6.452,47.742H24.516V63.226H6.452Zm0,0" fill="#fcd770"/>
        <path id="Path_1301057" data-name="Path 1301057" d="M6.452,23.226H24.516V38.71H6.452Zm0,0" fill="#fcd770"/>
        <path id="Path_1301058" data-name="Path 1301058" d="M58.065,52.9h5.161v2.581H58.065Zm0,0" fill="#dfb28b"/>
        <path id="Path_1301059" data-name="Path 1301059" d="M60.645,78.71a5.162,5.162,0,0,1-5.161-5.161V55.484H65.806V73.548A5.162,5.162,0,0,1,60.645,78.71Zm0,0" fill="#cf9e76"/>
        <path id="Path_1301060" data-name="Path 1301060" d="M61.935,73.548a1.29,1.29,0,1,1-1.29-1.29A1.29,1.29,0,0,1,61.935,73.548Zm0,0"/>
        <path id="Path_1301061" data-name="Path 1301061" d="M80,29.677A19.363,19.363,0,0,0,61.935,10.388V0H0V69.677H54.194v3.871a6.452,6.452,0,1,0,12.9,0V54.193H64.516V48.643A19.388,19.388,0,0,0,80,29.677Zm-2.581,0A16.774,16.774,0,1,1,60.645,12.9,16.794,16.794,0,0,1,77.419,29.677ZM54.194,54.194V67.1H2.581V2.581H59.355v7.807a19.343,19.343,0,0,0-2.581,38.255v5.551ZM64.516,73.548a3.871,3.871,0,0,1-7.742,0V56.774h7.742ZM61.935,54.194H59.355V48.967c.428.028.854.066,1.29.066s.862-.037,1.29-.066Zm0,0"/>
        <path id="Path_1301062" data-name="Path 1301062" d="M46.452,29.677A14.194,14.194,0,1,0,60.645,15.484,14.21,14.21,0,0,0,46.452,29.677Zm25.806,0A11.613,11.613,0,1,1,60.645,18.065,11.626,11.626,0,0,1,72.258,29.677Zm0,0"/>
        <path id="Path_1301063" data-name="Path 1301063" d="M56.2,32.475l-1.433,2.147,5.088,3.391L66.961,23.8l-2.31-1.153-5.8,11.6Zm0,0"/>
        <path id="Path_1301064" data-name="Path 1301064" d="M23.126,43.077l-2.382-.993-1.82,4.367H5.161V64.516H25.806V46.452H21.72Zm.1,5.955v12.9H7.742v-12.9H17.85l-2.816,6.757-2.508-2.508L10.7,55.106l5.234,5.234,4.71-11.307Zm0,0"/>
        <path id="Path_1301065" data-name="Path 1301065" d="M23.126,18.561l-2.382-.993-1.82,4.367H5.161V40H25.806V21.935H21.72Zm.1,5.955v12.9H7.742v-12.9H17.85l-2.816,6.757-2.508-2.508L10.7,30.59l5.234,5.234,4.71-11.307Zm0,0"/>
        <path id="Path_1301066" data-name="Path 1301066" d="M36.129,10.323H38.71V12.9H36.129Zm0,0"/>
        <path id="Path_1301067" data-name="Path 1301067" d="M5.161,10.323H33.548V12.9H5.161Zm0,0"/>
        <path id="Path_1301068" data-name="Path 1301068" d="M28.387,46.452H43.871v2.581H28.387Zm0,0"/>
        <path id="Path_1301069" data-name="Path 1301069" d="M28.387,51.613H43.871v2.581H28.387Zm0,0"/>
        <path id="Path_1301070" data-name="Path 1301070" d="M28.387,56.774H43.871v2.581H28.387Zm0,0"/>
        <path id="Path_1301071" data-name="Path 1301071" d="M28.387,61.935H43.871v2.581H28.387Zm0,0"/>
        <path id="Path_1301072" data-name="Path 1301072" d="M28.387,21.935H38.71v2.581H28.387Zm0,0"/>
        <path id="Path_1301073" data-name="Path 1301073" d="M28.387,27.1H38.71v2.581H28.387Zm0,0"/>
        <path id="Path_1301074" data-name="Path 1301074" d="M28.387,32.258H38.71v2.581H28.387Zm0,0"/>
        <path id="Path_1301075" data-name="Path 1301075" d="M28.387,37.419H38.71V40H28.387Zm0,0"/>
        <path id="Path_1301076" data-name="Path 1301076" d="M5.161,5.161H38.71V7.742H5.161Zm0,0"/>
      </g>
    </g>
  </g>
</svg>
